<svg width="797" height="510" viewBox="0 0 797 510" fill="none" xmlns="http://www.w3.org/2000/svg">
<path d="M759.318 243.034C759.318 243.034 713.093 374.789 563.682 429.171C414.271 483.552 351.491 391.471 351.491 391.471C351.491 391.471 351.5 276.004 488.609 222.908C625.718 169.812 759.318 243.034 759.318 243.034Z" fill="#FF0000" stroke="white" stroke-width="20"/>
<path d="M38.4914 243.69C38.4914 243.69 158.592 172.472 308.003 226.854C457.415 281.235 446.318 392.127 446.318 392.127C446.318 392.127 372.091 480.574 232.93 433.116C93.7692 385.658 38.4914 243.69 38.4914 243.69Z" fill="#FF0000" stroke="white" stroke-width="20"/>
<path d="M641.495 88.0814C641.495 88.0814 679.202 222.523 588.003 352.768C496.804 483.013 392.563 443.593 392.563 443.593C392.563 443.593 326.341 349.004 408.199 226.868C490.057 104.732 641.495 88.0814 641.495 88.0814Z" fill="#FF000F" stroke="white" stroke-width="20"/>
<path d="M183.193 90.287C183.193 90.287 322.423 100.836 413.621 231.081C504.82 361.326 432.125 445.799 432.125 445.799C432.125 445.799 320.591 475.676 233.818 356.981C147.044 238.286 183.193 90.287 183.193 90.287Z" fill="#FF0011" stroke="white" stroke-width="20"/>
<path d="M410.558 14C410.558 14 518.558 102.5 518.558 261.5C518.558 420.5 410.558 448 410.558 448C410.558 448 302.058 408.5 299.058 261.5C296.058 114.5 410.558 14 410.558 14Z" fill="#FF0000" stroke="white" stroke-width="20"/>
</svg>
